<?xml version="1.0" standalone="no"?>
<!DOCTYPE svg PUBLIC "-//W3C//DTD SVG 20010904//EN"
 "http://www.w3.org/TR/2001/REC-SVG-20010904/DTD/svg10.dtd">
<svg version="1.0" xmlns="http://www.w3.org/2000/svg"
 width="615.000000pt" height="615.000000pt" viewBox="0 0 615.000000 615.000000"
 preserveAspectRatio="xMidYMid meet">
<metadata>
Created by potrace 1.11, written by Peter Selinger 2001-2013
</metadata>
<g transform="translate(0.000000,615.000000) scale(0.100000,-0.100000)"
fill="#000000" stroke="none">
<path d="M5550 5506 c-541 -328 -1031 -707 -1574 -1216 -195 -183 -579 -574
-731 -745 -33 -38 -67 -75 -75 -84 -9 -9 -43 -47 -75 -86 -33 -38 -62 -72 -65
-75 -16 -16 -249 -302 -321 -395 -185 -238 -402 -547 -543 -773 l-58 -93 -55
118 c-161 348 -254 516 -365 664 -72 95 -163 181 -231 217 -47 24 -61 27 -152
26 -82 0 -114 -5 -177 -28 -125 -44 -214 -95 -343 -196 -79 -61 -71 -55 -154
-134 l-62 -59 88 -42 c99 -47 198 -119 270 -196 26 -29 53 -57 58 -63 6 -6 24
-29 40 -51 17 -22 32 -42 36 -45 3 -3 36 -54 74 -115 159 -252 474 -938 595
-1295 18 -52 35 -99 37 -103 3 -5 19 5 37 21 55 52 264 202 500 359 l229 152
79 152 c43 84 92 176 108 206 17 29 44 79 62 111 17 31 39 69 50 84 10 14 18
29 18 33 0 3 16 31 35 61 19 30 35 56 35 58 0 25 434 675 637 955 60 83 343
456 382 503 25 31 87 107 136 169 78 97 160 197 239 289 69 82 201 236 206
240 3 3 39 43 80 90 222 251 501 536 770 785 54 50 283 246 328 280 7 6 18 15
25 21 7 5 47 36 90 68 42 32 77 62 77 67 0 20 -123 179 -138 178 -10 0 -100
-51 -202 -113z"/>
<path d="M1103 5305 c-100 -31 -190 -112 -241 -215 l-27 -55 -3 -946 -2 -946
73 36 c126 62 216 89 289 87 l37 -1 3 765 c4 832 4 830 59 857 63 31 169 33
1612 33 l1458 0 102 82 c139 113 138 112 151 123 6 6 66 52 134 103 l123 92
-1863 -1 c-1518 0 -1871 -3 -1905 -14z"/>
<path d="M5163 4512 c-84 -86 -170 -176 -193 -200 l-40 -43 0 -1417 c0 -780
-4 -1445 -9 -1479 -13 -90 -28 -115 -81 -132 -39 -13 -188 -16 -1064 -21 -979
-5 -1019 -6 -1030 -24 -27 -45 -121 -129 -219 -195 -58 -39 -111 -71 -117 -71
-5 0 -10 -4 -10 -8 0 -5 -10 -14 -22 -19 -13 -6 -45 -27 -73 -47 l-50 -36
1395 2 1395 3 60 29 c77 38 153 114 191 191 l29 60 3 1783 c1 980 -1 1782 -5
1781 -5 0 -76 -71 -160 -157z"/>
<path d="M832 1648 l3 -543 29 -60 c17 -33 53 -83 80 -111 28 -27 78 -63 111
-80 59 -29 63 -29 254 -32 186 -3 194 -3 189 15 -3 11 -40 105 -84 211 -71
174 -81 192 -105 197 -15 4 -32 12 -38 19 -12 14 -27 77 -40 166 -9 65 -92
250 -206 458 -47 86 -184 302 -191 302 -3 0 -3 -244 -2 -542z"/>
</g>
</svg>
